<svg width="266" height="45" viewBox="0 0 266 45" fill="none" xmlns="http://www.w3.org/2000/svg">
<g clip-path="url(#clip0_2288_600)">
<path d="M58.6885 14.3105V14.2737C58.6885 10.6808 61.3985 7.73364 65.2817 7.73364C67.1784 7.73364 68.4618 8.2405 69.5083 9.01714C69.7985 9.23378 70.0519 9.63027 70.0519 10.1208C70.0519 10.8811 69.4388 11.4738 68.6785 11.4738C68.2983 11.4738 68.0449 11.3307 67.8487 11.204C67.0721 10.6276 66.2586 10.3006 65.2654 10.3006C63.1357 10.3006 61.5988 12.0705 61.5988 14.237V14.2737C61.5988 16.4402 63.099 18.2469 65.2654 18.2469C66.4385 18.2469 67.2151 17.8872 68.0122 17.2536C68.2289 17.0737 68.5191 16.947 68.842 16.947C69.545 16.947 70.1418 17.5234 70.1418 18.2305C70.1418 18.6638 69.9252 19.0071 69.6718 19.2238C68.5354 20.2171 67.1988 20.8138 65.1754 20.8138C61.4558 20.8138 58.6926 17.9403 58.6885 14.3105Z" fill="#58595B"/>
<path d="M72.615 23.2869C72.2185 23.1438 71.7485 22.8168 71.7485 22.1505C71.7485 21.4843 72.2717 21.0306 72.8317 21.0306C73.0483 21.0306 73.175 21.0673 73.2813 21.1041C73.5143 21.1777 73.6615 21.2145 73.8577 21.2145C74.3441 21.2145 74.5812 21.1246 74.8346 20.6382L74.9245 20.4215L71.6177 12.7655C71.5441 12.5856 71.4746 12.3159 71.4746 12.1319C71.4746 11.3553 72.0714 10.8116 72.8276 10.8116C73.5143 10.8116 73.9108 11.1918 74.1479 11.8417L76.2448 17.4785L78.2681 11.8621C78.4848 11.2858 78.8813 10.8157 79.5884 10.8157C80.2956 10.8157 80.8883 11.3594 80.8883 12.0788C80.8883 12.2954 80.8147 12.602 80.7616 12.7287L77.3852 20.8384C76.5718 22.8086 75.7584 23.5485 74.1152 23.5485C73.502 23.5485 73.0688 23.4586 72.615 23.2951V23.2869Z" fill="#58595B"/>
<path d="M83.1648 13.2601H83.0544C82.4209 13.2601 81.9181 12.7737 81.9181 12.1401C81.9181 11.5065 82.4249 11.0037 83.0544 11.0037H83.1648V10.3906C83.1648 9.32375 83.4346 8.54712 83.9414 8.04435C84.4483 7.53749 85.1881 7.28406 86.1651 7.28406C86.5984 7.28406 86.9785 7.30041 87.2851 7.35763C87.7551 7.43121 88.2252 7.84405 88.2252 8.46128C88.2252 9.0785 87.7183 9.59762 87.1052 9.59762H86.8722C86.2386 9.59762 85.8789 9.92463 85.8789 10.644V11.0242H87.0725C87.7061 11.0242 88.2089 11.5106 88.2089 12.1442C88.2089 12.7777 87.702 13.2642 87.0725 13.2642H85.9157V19.3342C85.9157 20.0945 85.3026 20.7076 84.5423 20.7076C83.782 20.7076 83.1689 20.0945 83.1689 19.3342V13.2642L83.1648 13.2601Z" fill="#58595B"/>
<path d="M88.9451 15.8066V15.7698C88.9451 12.9903 91.1851 10.7299 94.2017 10.7299C97.2183 10.7299 99.4215 12.9535 99.4215 15.733V15.7698C99.4215 18.5494 97.1815 20.8098 94.1649 20.8098C91.1483 20.8098 88.9451 18.5862 88.9451 15.8066ZM96.7114 15.8066V15.7698C96.7114 14.3433 95.6814 13.0966 94.1649 13.0966C92.6484 13.0966 91.6551 14.3065 91.6551 15.733V15.7698C91.6551 17.1964 92.6852 18.4431 94.2017 18.4431C95.7182 18.4431 96.7114 17.2332 96.7114 15.8066Z" fill="#58595B"/>
<path d="M105.539 20.8098C102.633 20.8098 100.483 18.7701 100.483 15.8066V15.7698C100.483 13.0066 102.453 10.7299 105.269 10.7299C108.503 10.7299 109.929 13.3868 109.929 15.3897C109.929 16.1827 109.369 16.71 108.646 16.71H103.209C103.479 17.9567 104.346 18.6066 105.576 18.6066C106.336 18.6066 106.966 18.3736 107.526 17.9567C107.726 17.8136 107.906 17.74 108.192 17.74C108.805 17.74 109.259 18.2101 109.259 18.8232C109.259 19.1829 109.095 19.4568 108.899 19.6367C108.049 20.3602 106.949 20.8098 105.539 20.8098ZM107.309 14.9932C107.146 13.7669 106.422 12.9331 105.269 12.9331C104.117 12.9331 103.389 13.7465 103.173 14.9932H107.309Z" fill="#58595B"/>
<path d="M111.752 17.8504V13.2642H111.662C111.012 13.2642 110.489 12.741 110.489 12.0911C110.489 11.4411 111.012 10.9179 111.662 10.9179H111.752V9.70802C111.752 8.94773 112.365 8.33459 113.126 8.33459C113.886 8.33459 114.499 8.94773 114.499 9.70802V10.9179H115.709C116.359 10.9179 116.882 11.4411 116.882 12.0911C116.882 12.741 116.359 13.2642 115.709 13.2642H114.499V17.4008C114.499 18.0344 114.769 18.341 115.386 18.341C115.476 18.341 115.656 18.3246 115.709 18.3246C116.322 18.3246 116.845 18.8315 116.845 19.4609C116.845 19.9474 116.518 20.3479 116.142 20.491C115.636 20.6913 115.165 20.7608 114.573 20.7608C112.893 20.7608 111.756 20.0904 111.752 17.8504Z" fill="#58595B"/>
<path d="M118.331 8.67384C118.331 7.91355 118.944 7.30042 119.704 7.30042C120.465 7.30042 121.078 7.91355 121.078 8.67384V12.2872C121.711 11.4738 122.521 10.734 123.915 10.734C125.991 10.734 127.201 12.1074 127.201 14.3269V19.3301C127.201 20.0904 126.588 20.7035 125.828 20.7035C125.067 20.7035 124.454 20.0904 124.454 19.3301V15.1935C124.454 13.8937 123.841 13.2233 122.791 13.2233C121.74 13.2233 121.074 13.8896 121.074 15.1935V19.3301C121.074 20.0904 120.461 20.7035 119.7 20.7035C118.94 20.7035 118.327 20.0904 118.327 19.3301L118.331 8.67384Z" fill="#58595B"/>
<path d="M134.306 9.16032C134.306 8.38369 134.919 7.77055 135.696 7.77055H135.986C136.656 7.77055 137.053 8.09756 137.429 8.58398L142.792 15.6269V9.10719C142.792 8.3469 143.405 7.73376 144.165 7.73376C144.925 7.73376 145.538 8.3469 145.538 9.10719V19.1667C145.538 19.9433 144.925 20.5565 144.149 20.5565H144.059C143.392 20.5565 142.992 20.2335 142.616 19.743L137.053 12.4467V19.2198C137.053 19.9801 136.439 20.5932 135.679 20.5932C134.919 20.5932 134.306 19.9801 134.306 19.2198V9.16032Z" fill="#58595B"/>
<path d="M147.149 17.7033V17.6666C147.149 15.5533 148.755 14.5764 151.048 14.5764C152.025 14.5764 152.728 14.7399 153.415 14.9729V14.8094C153.415 13.673 152.712 13.0394 151.339 13.0394C150.578 13.0394 149.965 13.1498 149.442 13.3092C149.278 13.3624 149.172 13.3828 149.045 13.3828C148.412 13.3828 147.909 12.8964 147.909 12.2628C147.909 11.7764 148.216 11.3594 148.649 11.1959C149.516 10.8689 150.456 10.6891 151.739 10.6891C153.239 10.6891 154.322 11.0856 155.009 11.7723C155.733 12.4958 156.056 13.5586 156.056 14.8625V19.2689C156.056 20.0087 155.459 20.5892 154.719 20.5892C153.926 20.5892 153.399 20.0292 153.399 19.4528V19.4365C152.732 20.1763 151.809 20.6627 150.472 20.6627C148.649 20.6627 147.149 19.6163 147.149 17.6993V17.7033ZM153.452 17.0698V16.5834C152.982 16.3667 152.369 16.2236 151.698 16.2236C150.525 16.2236 149.802 16.6937 149.802 17.5603V17.5971C149.802 18.3369 150.415 18.7702 151.302 18.7702C152.585 18.7702 153.452 18.0671 153.452 17.0698Z" fill="#58595B"/>
<path d="M158.35 17.7402V13.154H158.26C157.61 13.154 157.087 12.6308 157.087 11.9808C157.087 11.3309 157.61 10.8077 158.26 10.8077H158.35V9.59779C158.35 8.8375 158.963 8.22437 159.723 8.22437C160.484 8.22437 161.097 8.8375 161.097 9.59779V10.8077H162.307C162.957 10.8077 163.48 11.3309 163.48 11.9808C163.48 12.6308 162.957 13.154 162.307 13.154H161.097V17.2906C161.097 17.9242 161.367 18.2307 161.984 18.2307C162.074 18.2307 162.254 18.2144 162.307 18.2144C162.92 18.2144 163.443 18.7212 163.443 19.3507C163.443 19.8371 163.116 20.2377 162.74 20.3808C162.233 20.5811 161.763 20.6506 161.17 20.6506C159.49 20.6506 158.354 19.9802 158.35 17.7402Z" fill="#58595B"/>
<path d="M173.898 19.2239C173.898 19.9842 173.285 20.5973 172.525 20.5973C171.764 20.5973 171.151 19.9842 171.151 19.2239V19.1136C170.518 19.927 169.708 20.6668 168.314 20.6668C166.238 20.6668 165.028 19.2934 165.028 17.0739V12.0707C165.028 11.3104 165.641 10.6973 166.401 10.6973C167.162 10.6973 167.775 11.3104 167.775 12.0707V16.2073C167.775 17.5071 168.388 18.1775 169.438 18.1775C170.489 18.1775 171.155 17.5112 171.155 16.2073V12.0707C171.155 11.3104 171.768 10.6973 172.529 10.6973C173.289 10.6973 173.902 11.3104 173.902 12.0707L173.898 19.2239Z" fill="#58595B"/>
<path d="M175.975 12.0707C175.975 11.3104 176.588 10.6973 177.348 10.6973C178.108 10.6973 178.721 11.3104 178.721 12.0707V12.504C179.118 11.5638 179.768 10.6973 180.581 10.6973C181.395 10.6973 181.918 11.2573 181.918 12.0339C181.918 12.7574 181.448 13.1907 180.888 13.3174C179.498 13.6444 178.721 14.7072 178.721 16.6569V19.2198C178.721 19.9801 178.108 20.5933 177.348 20.5933C176.588 20.5933 175.975 19.9801 175.975 19.2198V12.0666V12.0707Z" fill="#58595B"/>
<path d="M183.001 8.49407C183.001 7.70108 183.667 7.21057 184.538 7.21057C185.409 7.21057 186.075 7.69699 186.075 8.49407V8.53086C186.075 9.32384 185.409 9.8307 184.538 9.8307C183.667 9.8307 183.001 9.32384 183.001 8.53086V8.49407ZM183.165 12.0707C183.165 11.3104 183.778 10.6973 184.538 10.6973C185.298 10.6973 185.912 11.3104 185.912 12.0707V19.2239C185.912 19.9842 185.298 20.5973 184.538 20.5973C183.778 20.5973 183.165 19.9842 183.165 19.2239V12.0707Z" fill="#58595B"/>
<path d="M187.137 15.7004V15.6636C187.137 12.8841 189.377 10.6237 192.393 10.6237C195.41 10.6237 197.613 12.8473 197.613 15.6268V15.6636C197.613 18.4432 195.373 20.7036 192.357 20.7036C189.34 20.7036 187.137 18.48 187.137 15.7004ZM194.903 15.7004V15.6636C194.903 14.2371 193.873 12.9904 192.357 12.9904C190.84 12.9904 189.847 14.2003 189.847 15.6268V15.6636C189.847 17.0902 190.877 18.3369 192.393 18.3369C193.91 18.3369 194.903 17.127 194.903 15.7004Z" fill="#58595B"/>
<path d="M199.039 8.56764C199.039 7.80735 199.652 7.19421 200.413 7.19421C201.173 7.19421 201.786 7.80735 201.786 8.56764V19.2239C201.786 19.9842 201.173 20.5973 200.413 20.5973C199.652 20.5973 199.039 19.9842 199.039 19.2239V8.56764Z" fill="#58595B"/>
<path d="M208.217 14.2246V14.1878C208.217 10.5785 210.915 7.59045 214.672 7.59045C216.732 7.59045 218.044 8.2649 219.229 9.25001C219.376 9.37672 219.519 9.57701 219.519 9.83453C219.519 10.2188 219.172 10.5458 218.792 10.5458C218.592 10.5458 218.428 10.4558 218.318 10.3823C217.333 9.50752 216.221 8.923 214.655 8.923C211.831 8.923 209.717 11.2202 209.717 14.1551V14.1919C209.717 17.1431 211.851 19.4607 214.655 19.4607C216.241 19.4607 217.353 18.913 218.448 17.9116C218.559 17.8012 218.722 17.7113 218.902 17.7113C219.266 17.7113 219.593 18.0383 219.593 18.4021C219.593 18.6187 219.483 18.8026 219.356 18.913C218.097 20.0616 216.711 20.7892 214.618 20.7892C210.936 20.7892 208.221 17.8911 208.217 14.2246Z" fill="#58595B"/>
<path d="M221.032 23.2662C220.815 23.1763 220.594 22.9923 220.594 22.6653C220.594 22.3179 220.885 22.0645 221.195 22.0645C221.322 22.0645 221.432 22.1012 221.543 22.138C221.817 22.228 222.09 22.3015 222.565 22.3015C223.439 22.3015 223.95 21.7742 224.461 20.6256L224.535 20.4785L220.598 12.1317C220.545 12.005 220.509 11.8782 220.509 11.7474C220.509 11.3632 220.819 11.0566 221.22 11.0566C221.62 11.0566 221.804 11.2937 221.931 11.6044L225.213 19.007L228.132 11.588C228.242 11.2978 228.443 11.0607 228.806 11.0607C229.191 11.0607 229.497 11.3714 229.497 11.7515C229.497 11.8619 229.46 11.9886 229.424 12.099L225.741 20.8831C224.919 22.8329 224.008 23.5442 222.585 23.5442C221.964 23.5442 221.51 23.4338 221.036 23.2703L221.032 23.2662Z" fill="#58595B"/>
<path d="M231.091 11.7639C231.091 11.3796 231.401 11.0526 231.782 11.0526C232.162 11.0526 232.493 11.3633 232.493 11.7639V12.7285C233.114 11.8006 233.952 10.9423 235.538 10.9423C237.124 10.9423 238.052 11.7639 238.563 12.8185C239.237 11.7802 240.239 10.9423 241.882 10.9423C244.052 10.9423 245.381 12.4015 245.381 14.7355V19.9472C245.381 20.3477 245.07 20.6584 244.69 20.6584C244.31 20.6584 243.979 20.3477 243.979 19.9472V15.0625C243.979 13.2395 243.067 12.2176 241.535 12.2176C240.112 12.2176 238.947 13.2763 238.947 15.1361V19.9472C238.947 20.3477 238.636 20.6584 238.236 20.6584C237.835 20.6584 237.545 20.3477 237.545 19.9472V15.0257C237.545 13.2558 236.617 12.2176 235.121 12.2176C233.625 12.2176 232.497 13.4561 232.497 15.1892V19.9472C232.497 20.3477 232.207 20.6584 231.806 20.6584C231.406 20.6584 231.095 20.3477 231.095 19.9472V11.7639H231.091Z" fill="#58595B"/>
<path d="M246.95 11.7638C246.95 11.3796 247.261 11.0526 247.641 11.0526C248.021 11.0526 248.352 11.3633 248.352 11.7638V13.5338C249.043 11.9641 250.413 11.0199 251.598 11.0199C252.019 11.0199 252.289 11.3306 252.289 11.7311C252.289 12.1317 252.035 12.3851 251.667 12.4424C249.844 12.659 248.348 14.0283 248.348 16.7425V19.9512C248.348 20.3355 248.058 20.6625 247.658 20.6625C247.257 20.6625 246.946 20.3518 246.946 19.9512V11.7679L246.95 11.7638Z" fill="#58595B"/>
<path d="M261.572 19.9472C261.572 20.3314 261.282 20.6585 260.881 20.6585C260.481 20.6585 260.19 20.3478 260.19 19.9472V18.9253C259.553 19.9472 258.588 20.7647 256.965 20.7647C254.689 20.7647 253.356 19.2319 253.356 16.9919V11.7598C253.356 11.3592 253.646 11.0486 254.047 11.0486C254.447 11.0486 254.758 11.3592 254.758 11.7598V16.6445C254.758 18.3939 255.706 19.4894 257.366 19.4894C259.025 19.4894 260.19 18.304 260.19 16.5382V11.7639C260.19 11.3633 260.481 11.0527 260.881 11.0527C261.282 11.0527 261.572 11.3633 261.572 11.7639V19.9472Z" fill="#58595B"/>
<path d="M58.8777 26.0542C58.8777 25.2776 59.4908 24.6645 60.2675 24.6645H60.5577C61.228 24.6645 61.6245 24.9915 62.0047 25.4779L67.3717 32.5249V26.0011C67.3717 25.2408 67.9848 24.6277 68.7451 24.6277C69.5054 24.6277 70.1185 25.2408 70.1185 26.0011V36.0647C70.1185 36.8413 69.5054 37.4545 68.7287 37.4545H68.6388C67.9684 37.4545 67.5719 37.1275 67.1918 36.641L61.6286 29.3406V36.1178C61.6286 36.8781 61.0155 37.4913 60.2552 37.4913C59.4949 37.4913 58.8818 36.8781 58.8818 36.1178V26.0542H58.8777Z" fill="#58595B"/>
<path d="M71.4683 34.6013V34.5645C71.4683 32.4512 73.0747 31.4743 75.3719 31.4743C76.3488 31.4743 77.0519 31.6378 77.7386 31.8708V31.7073C77.7386 30.571 77.0355 29.9374 75.6621 29.9374C74.9018 29.9374 74.2887 30.0478 73.7655 30.2072C73.602 30.2603 73.4957 30.2807 73.369 30.2807C72.7354 30.2807 72.2285 29.7943 72.2285 29.1607C72.2285 28.6743 72.5351 28.2574 72.9684 28.0939C73.835 27.7669 74.7751 27.587 76.0586 27.587C77.5587 27.587 78.6419 27.9835 79.3287 28.6702C80.0522 29.3937 80.3751 30.4606 80.3751 31.7604V36.1668C80.3751 36.9067 79.7783 37.4871 79.0384 37.4871C78.2454 37.4871 77.7182 36.9271 77.7182 36.3508V36.3344C77.0478 37.0743 76.1281 37.5648 74.7915 37.5648C72.9684 37.5648 71.4683 36.5184 71.4683 34.6013ZM77.7754 33.9677V33.4813C77.3053 33.2647 76.6922 33.1216 76.0218 33.1216C74.8487 33.1216 74.1252 33.5917 74.1252 34.4582V34.495C74.1252 35.2349 74.7383 35.6682 75.6253 35.6682C76.9088 35.6682 77.7754 34.9651 77.7754 33.9677Z" fill="#58595B"/>
<path d="M82.7245 34.6381V30.0478H82.6346C81.9846 30.0478 81.4614 29.5246 81.4614 28.8746C81.4614 28.2247 81.9846 27.7015 82.6346 27.7015H82.7245V26.4916C82.7245 25.7313 83.3376 25.1182 84.0979 25.1182C84.8582 25.1182 85.4713 25.7313 85.4713 26.4916V27.7015H86.6812C87.3312 27.7015 87.8544 28.2247 87.8544 28.8746C87.8544 29.5246 87.3312 30.0478 86.6812 30.0478H85.4713V34.1844C85.4713 34.818 85.7411 35.1245 86.3583 35.1245C86.4483 35.1245 86.6281 35.1082 86.6853 35.1082C87.2985 35.1082 87.8258 35.615 87.8258 36.2445C87.8258 36.7309 87.4988 37.1315 87.1227 37.2746C86.6158 37.4749 86.1458 37.5444 85.549 37.5444C83.869 37.5444 82.7286 36.874 82.7286 34.634L82.7245 34.6381Z" fill="#58595B"/>
<path d="M98.2127 36.1178C98.2127 36.8781 97.5996 37.4912 96.8393 37.4912C96.079 37.4912 95.4659 36.8781 95.4659 36.1178V36.0074C94.8323 36.8208 94.0189 37.5607 92.6291 37.5607C90.5526 37.5607 89.3386 36.1873 89.3386 33.9636V28.9605C89.3386 28.2002 89.9518 27.587 90.712 27.587C91.4723 27.587 92.0855 28.2002 92.0855 28.9605V33.0971C92.0855 34.3969 92.6986 35.0673 93.7491 35.0673C94.7996 35.0673 95.4659 34.3969 95.4659 33.0971V28.9605C95.4659 28.2002 96.079 27.587 96.8393 27.587C97.5996 27.587 98.2127 28.2002 98.2127 28.9605V36.1178Z" fill="#58595B"/>
<path d="M100.437 28.9645C100.437 28.2042 101.05 27.5911 101.81 27.5911C102.571 27.5911 103.184 28.2042 103.184 28.9645V29.3978C103.58 28.4576 104.23 27.5911 105.044 27.5911C105.857 27.5911 106.38 28.1511 106.38 28.9277C106.38 29.6512 105.91 30.0845 105.35 30.2112C103.96 30.5382 103.184 31.601 103.184 33.5548V36.1218C103.184 36.8821 102.571 37.4952 101.81 37.4952C101.05 37.4952 100.437 36.8821 100.437 36.1218V28.9645Z" fill="#58595B"/>
<path d="M106.728 34.6013V34.5645C106.728 32.4512 108.334 31.4743 110.631 31.4743C111.608 31.4743 112.311 31.6378 112.998 31.8708V31.7073C112.998 30.571 112.295 29.9374 110.922 29.9374C110.161 29.9374 109.548 30.0478 109.025 30.2072C108.861 30.2603 108.755 30.2807 108.628 30.2807C107.995 30.2807 107.488 29.7943 107.488 29.1607C107.488 28.6743 107.795 28.2574 108.228 28.0939C109.094 27.7669 110.035 27.587 111.318 27.587C112.818 27.587 113.901 27.9835 114.588 28.6702C115.312 29.3937 115.634 30.4606 115.634 31.7604V36.1668C115.634 36.9067 115.038 37.4871 114.298 37.4871C113.505 37.4871 112.978 36.9271 112.978 36.3508V36.3344C112.307 37.0743 111.387 37.5648 110.051 37.5648C108.228 37.5648 106.728 36.5184 106.728 34.6013ZM113.035 33.9677V33.4813C112.565 33.2647 111.952 33.1216 111.281 33.1216C110.108 33.1216 109.385 33.5917 109.385 34.4582V34.495C109.385 35.2349 109.998 35.6682 110.885 35.6682C112.168 35.6682 113.035 34.9651 113.035 33.9677Z" fill="#58595B"/>
<path d="M117.404 25.4574C117.404 24.6971 118.017 24.084 118.778 24.084C119.538 24.084 120.151 24.6971 120.151 25.4574V36.1178C120.151 36.8781 119.538 37.4912 118.778 37.4912C118.017 37.4912 117.404 36.8781 117.404 36.1178V25.4574Z" fill="#58595B"/>
<path d="M126.011 26.0706C126.011 25.2939 126.624 24.6808 127.401 24.6808H131.791C133.397 24.6808 134.644 25.1345 135.478 25.9643C136.181 26.6673 136.561 27.6606 136.561 28.8542V28.891C136.561 30.8775 135.568 32.1079 134.031 32.7415L135.964 35.0918C136.234 35.4352 136.418 35.7254 136.418 36.1587C136.418 36.9353 135.768 37.4422 135.098 37.4422C134.464 37.4422 134.051 37.1356 133.724 36.7187L131.014 33.2851H128.791V36.0483C128.791 36.8249 128.177 37.4381 127.401 37.4381C126.624 37.4381 126.011 36.8249 126.011 36.0483V26.0706ZM131.611 30.8244C132.968 30.8244 133.745 30.1009 133.745 29.034V28.9973C133.745 27.8037 132.915 27.1905 131.558 27.1905H128.795V30.8203L131.611 30.8244Z" fill="#58595B"/>
<path d="M142.618 37.5444C139.708 37.5444 137.558 35.5047 137.558 32.5412V32.5044C137.558 29.7412 139.528 27.4645 142.344 27.4645C145.577 27.4645 147.004 30.1214 147.004 32.1243C147.004 32.9173 146.444 33.4446 145.72 33.4446H140.28C140.55 34.6913 141.42 35.3412 142.647 35.3412C143.407 35.3412 144.036 35.1082 144.596 34.6913C144.797 34.5482 144.977 34.4746 145.267 34.4746C145.88 34.4746 146.334 34.9447 146.334 35.5579C146.334 35.9176 146.17 36.1914 145.974 36.3713C145.124 37.0948 144.024 37.5444 142.614 37.5444H142.618ZM144.388 31.7278C144.224 30.4975 143.501 29.6677 142.344 29.6677C141.187 29.6677 140.464 30.4811 140.247 31.7278H144.384H144.388Z" fill="#58595B"/>
<path d="M148.636 36.4081C148.346 36.2282 148.113 35.9012 148.113 35.4679C148.113 34.8548 148.583 34.3847 149.196 34.3847C149.397 34.3847 149.593 34.4379 149.74 34.5278C150.66 35.1042 151.584 35.3944 152.36 35.3944C153.137 35.3944 153.517 35.1042 153.517 34.6709V34.6341C153.517 34.0373 152.577 33.837 151.51 33.5141C150.153 33.1176 148.62 32.484 148.62 30.6037V30.567C148.62 28.5967 150.21 27.4972 152.16 27.4972C153.17 27.4972 154.22 27.767 155.16 28.237C155.557 28.4373 155.81 28.797 155.81 29.2671C155.81 29.8802 155.324 30.3503 154.707 30.3503C154.506 30.3503 154.38 30.3135 154.2 30.2236C153.423 29.8435 152.683 29.6105 152.103 29.6105C151.432 29.6105 151.089 29.9007 151.089 30.2808V30.3176C151.089 30.8613 152.009 31.1106 153.059 31.4744C154.416 31.9281 155.986 32.578 155.986 34.348V34.3847C155.986 36.5348 154.38 37.5117 152.283 37.5117C151.089 37.5117 149.806 37.1684 148.632 36.4081H148.636Z" fill="#58595B"/>
<path d="M156.781 32.5412V32.5044C156.781 29.7208 159.021 27.4645 162.038 27.4645C165.055 27.4645 167.258 29.6881 167.258 32.4677V32.5044C167.258 35.2881 165.018 37.5444 162.001 37.5444C158.985 37.5444 156.781 35.3208 156.781 32.5412ZM164.552 32.5412V32.5044C164.552 31.0779 163.522 29.8312 162.005 29.8312C160.489 29.8312 159.496 31.0411 159.496 32.4677V32.5044C159.496 33.931 160.526 35.1777 162.042 35.1777C163.559 35.1777 164.552 33.9678 164.552 32.5412Z" fill="#58595B"/>
<path d="M177.347 36.0647C177.347 36.825 176.734 37.4381 175.974 37.4381C175.214 37.4381 174.6 36.825 174.6 36.0647V35.9543C173.967 36.7677 173.153 37.5076 171.764 37.5076C169.687 37.5076 168.473 36.1342 168.473 33.9105V28.9074C168.473 28.1471 169.086 27.5339 169.847 27.5339C170.607 27.5339 171.22 28.1471 171.22 28.9074V33.044C171.22 34.3438 171.833 35.0142 172.884 35.0142C173.934 35.0142 174.6 34.3438 174.6 33.044V28.9074C174.6 28.1471 175.214 27.5339 175.974 27.5339C176.734 27.5339 177.347 28.1471 177.347 28.9074V36.0647Z" fill="#58595B"/>
<path d="M179.154 28.9074C179.154 28.1471 179.767 27.5339 180.527 27.5339C181.288 27.5339 181.901 28.1471 181.901 28.9074V29.3406C182.297 28.4005 182.947 27.5339 183.761 27.5339C184.574 27.5339 185.097 28.0939 185.097 28.8706C185.097 29.5941 184.627 30.0273 184.067 30.1541C182.678 30.4811 181.901 31.5438 181.901 33.4977V36.0647C181.901 36.825 181.288 37.4381 180.527 37.4381C179.767 37.4381 179.154 36.825 179.154 36.0647V28.9074Z" fill="#58595B"/>
<path d="M185.783 32.5412V32.5044C185.783 29.7412 187.896 27.4645 190.86 27.4645C192.323 27.4645 193.353 27.861 194.167 28.5477C194.347 28.6907 194.6 29.0178 194.6 29.4878C194.6 30.1745 194.04 30.7182 193.353 30.7182C192.994 30.7182 192.72 30.5751 192.556 30.4484C192.07 30.0683 191.563 29.8353 190.84 29.8353C189.466 29.8353 188.489 31.0452 188.489 32.4717V32.5085C188.489 33.9882 189.446 35.1818 190.946 35.1818C191.669 35.1818 192.229 34.9284 192.753 34.5114C192.896 34.4052 193.169 34.258 193.492 34.258C194.142 34.258 194.649 34.7812 194.649 35.4311C194.649 35.7908 194.486 36.0811 194.253 36.2977C193.439 37.0376 192.409 37.5444 190.819 37.5444C187.909 37.5444 185.779 35.3044 185.783 32.5412Z" fill="#58595B"/>
<path d="M200.49 37.5444C197.579 37.5444 195.429 35.5047 195.429 32.5412V32.5044C195.429 29.7412 197.399 27.4645 200.216 27.4645C203.449 27.4645 204.876 30.1214 204.876 32.1243C204.876 32.9173 204.316 33.4446 203.592 33.4446H198.152C198.421 34.6913 199.292 35.3412 200.518 35.3412C201.279 35.3412 201.908 35.1082 202.468 34.6913C202.668 34.5482 202.848 34.4746 203.138 34.4746C203.751 34.4746 204.205 34.9447 204.205 35.5579C204.205 35.9176 204.042 36.1914 203.846 36.3713C202.995 37.0948 201.896 37.5444 200.486 37.5444H200.49ZM202.26 31.7278C202.096 30.4975 201.373 29.6677 200.216 29.6677C199.059 29.6677 198.335 30.4811 198.119 31.7278H202.255H202.26Z" fill="#58595B"/>
<path d="M205.93 36.4081C205.64 36.2282 205.407 35.9012 205.407 35.4679C205.407 34.8548 205.877 34.3847 206.49 34.3847C206.69 34.3847 206.887 34.4379 207.034 34.5278C207.954 35.1042 208.877 35.3944 209.654 35.3944C210.431 35.3944 210.811 35.1042 210.811 34.6709V34.6341C210.811 34.0373 209.871 33.837 208.804 33.5141C207.447 33.1176 205.914 32.484 205.914 30.6037V30.567C205.914 28.5967 207.504 27.4972 209.454 27.4972C210.463 27.4972 211.514 27.767 212.454 28.237C212.85 28.4373 213.104 28.797 213.104 29.2671C213.104 29.8802 212.617 30.3503 212 30.3503C211.8 30.3503 211.673 30.3135 211.493 30.2236C210.717 29.8435 209.977 29.6105 209.396 29.6105C208.726 29.6105 208.383 29.9007 208.383 30.2808V30.3176C208.383 30.8613 209.302 31.1106 210.353 31.4744C211.71 31.9281 213.28 32.578 213.28 34.348V34.3847C213.28 36.5348 211.673 37.5117 209.576 37.5117C208.383 37.5117 207.099 37.1684 205.926 36.4081H205.93Z" fill="#58595B"/>
<path d="M217.352 25.6452C217.316 25.5349 217.279 25.4286 217.279 25.3182C217.279 24.9381 217.622 24.5947 218.019 24.5947C218.378 24.5947 218.652 24.8645 218.759 25.1915L222.245 35.2387L225.552 25.1588C225.658 24.8318 225.879 24.5988 226.255 24.5988H226.345C226.705 24.5988 226.942 24.8318 227.048 25.1588L230.355 35.2387L233.862 25.1588C233.968 24.8318 234.205 24.5988 234.549 24.5988C234.929 24.5988 235.272 24.9422 235.272 25.3019C235.272 25.4122 235.219 25.5349 235.182 25.6452L231.136 36.8819C231.009 37.2417 230.756 37.4951 230.396 37.4951H230.285C229.926 37.4951 229.672 37.2417 229.546 36.8819L226.259 27.1617L222.989 36.8819C222.862 37.2417 222.609 37.4951 222.249 37.4951H222.143C221.783 37.4951 221.53 37.2621 221.403 36.8819L217.356 25.6452H217.352Z" fill="#58595B"/>
<path d="M234.826 34.6215V34.5848C234.826 32.6146 236.453 31.5681 238.82 31.5681C240.013 31.5681 240.863 31.7316 241.693 31.9646V31.6376C241.693 29.9576 240.663 29.0911 238.909 29.0911C237.969 29.0911 237.176 29.3077 236.49 29.6143C236.4 29.6511 236.31 29.6674 236.236 29.6674C235.909 29.6674 235.623 29.3976 235.623 29.0706C235.623 28.7804 235.823 28.5638 236.003 28.4943C236.923 28.0978 237.863 27.8607 239.057 27.8607C240.377 27.8607 241.387 28.2041 242.073 28.8908C242.707 29.5244 243.03 30.4277 243.03 31.6172V36.7307C243.03 37.1272 242.74 37.4174 242.359 37.4174C241.979 37.4174 241.689 37.1272 241.689 36.7675V35.9173C241.039 36.7675 239.956 37.5237 238.309 37.5237C236.575 37.5237 234.822 36.5304 234.822 34.6134L234.826 34.6215ZM241.709 33.898V32.9947C241.023 32.7944 240.103 32.5982 238.963 32.5982C237.209 32.5982 236.236 33.3585 236.236 34.5316V34.5684C236.236 35.7415 237.319 36.4283 238.587 36.4283C240.303 36.4283 241.714 35.3818 241.714 33.898H241.709Z" fill="#58595B"/>
<path d="M245.303 24.7582C245.303 24.3781 245.609 24.0552 245.99 24.0552C246.37 24.0552 246.693 24.3822 246.693 24.7582V36.7185C246.693 37.1149 246.402 37.4215 246.006 37.4215C245.609 37.4215 245.303 37.1149 245.303 36.7185V24.7582Z" fill="#58595B"/>
<path d="M253.127 37.5524C250.56 37.5524 248.467 35.5822 248.467 32.6923V32.6555C248.467 29.9618 250.364 27.7954 252.947 27.7954C255.71 27.7954 257.284 30.0517 257.284 32.5288C257.284 32.909 256.977 33.1787 256.634 33.1787H249.877C250.077 35.2021 251.504 36.3425 253.164 36.3425C254.32 36.3425 255.171 35.8888 255.857 35.2593C255.964 35.1694 256.09 35.0958 256.254 35.0958C256.597 35.0958 256.867 35.3656 256.867 35.6926C256.867 35.8561 256.793 36.0196 256.65 36.1463C255.763 36.9965 254.717 37.5565 253.127 37.5524ZM255.89 32.1487C255.747 30.4523 254.77 28.9685 252.91 28.9685C251.283 28.9685 250.057 30.3256 249.873 32.1487H255.89Z" fill="#58595B"/>
<path d="M258.494 36.3383C258.367 36.2483 258.241 36.0685 258.241 35.8314C258.241 35.5044 258.51 35.2346 258.854 35.2346C258.98 35.2346 259.107 35.2714 259.197 35.345C260.154 35.9949 261.147 36.3383 262.161 36.3383C263.281 36.3383 264.094 35.7619 264.094 34.8586V34.8218C264.094 33.8816 262.99 33.5219 261.764 33.1786C260.301 32.7616 258.674 32.2589 258.674 30.5421V30.5053C258.674 28.8989 260.011 27.832 261.854 27.832C262.847 27.832 263.93 28.1386 264.834 28.625C265.014 28.7313 265.177 28.9316 265.177 29.2014C265.177 29.5284 264.907 29.7982 264.564 29.7982C264.437 29.7982 264.331 29.7614 264.257 29.7246C263.464 29.2709 262.614 29.0011 261.817 29.0011C260.714 29.0011 260.011 29.5774 260.011 30.3581V30.3949C260.011 31.2819 261.167 31.6253 262.414 32.0013C263.861 32.4346 265.414 32.9946 265.414 34.6746V34.7114C265.414 36.4813 263.951 37.5114 262.091 37.5114C260.861 37.5114 259.508 37.0577 258.494 36.3383Z" fill="#58595B"/>
<path d="M0.575684 13.3541C0.575684 13.3541 0.841375 12.8677 1.27874 12.4467C1.71611 12.0257 2.07582 11.8295 2.07582 11.8295L21.5694 0.572304C22.8897 -0.19207 24.5206 -0.19207 25.8409 0.572304L40.1188 8.81692L16.4191 22.5021L0.575684 13.3541Z" fill="#20C4F4"/>
<path d="M0.574778 13.354C0.574778 13.354 0.296824 13.82 0.145584 14.3922C-0.00565591 14.9645 0.00251922 15.5041 0.00251922 15.5041V29.5121C0.00251922 31.0368 0.815944 32.447 2.13623 33.2114L7.28656 36.1831L23.7022 26.704L0.574778 13.354Z" fill="#59AA47"/>
<path d="M46.8292 31.6458C46.8292 31.6458 46.5635 32.1323 46.1262 32.5533C45.6888 32.9743 45.3291 33.1705 45.3291 33.1705L25.8355 44.4236C24.5152 45.1879 22.8843 45.1879 21.564 44.4236L7.28613 36.1789L30.9858 22.4938L46.8292 31.6458Z" fill="#005446"/>
<path d="M46.8293 31.6459C46.8293 31.6459 47.1073 31.18 47.2585 30.6077C47.4098 30.0354 47.4016 29.4959 47.4016 29.4959V15.4878C47.4016 13.9631 46.5882 12.5529 45.2679 11.7886L40.1176 8.81689L23.7019 18.296L46.8293 31.6459Z" fill="#009EAC"/>
</g>
<defs>
<clipPath id="clip0_2288_600">
<rect width="265.41" height="45" fill="white"/>
</clipPath>
</defs>
</svg>
