<svg width="685" height="123" viewBox="0 0 685 123" fill="none" xmlns="http://www.w3.org/2000/svg">
  <g opacity="0.05">
    <path fill-rule="evenodd" clip-rule="evenodd" d="M548.688 9.62244H548.367L438.887 79.1286V94.8236L548.688 24.9971L658.168 94.8236V79.1286L548.688 9.62244Z" fill="white"/>
  </g>
  <g opacity="0.05">
    <path fill-rule="evenodd" clip-rule="evenodd" d="M1970 75.9257L1865.01 9.30225L1755.21 78.8084L1645.73 9.30225H1645.41L1535.93 78.8084L1426.13 9.30225L1316.65 78.8084V79.1287L1206.85 9.62255L1097.05 79.1287L987.567 9.62255H987.246L877.766 79.1287L767.965 9.62255L658.484 79.1287V94.8237L767.965 24.9972L877.766 94.8237L987.567 24.9972L1097.05 94.8237L1206.85 24.9972L1316.65 94.5034L1426.13 24.6769L1535.93 94.5034L1645.73 24.6769L1755.21 94.5034L1865.01 24.6769L1970 91.6206V75.9257Z" fill="white"/>
  </g>
  <g opacity="0.05">
    <path fill-rule="evenodd" clip-rule="evenodd" d="M1970 147.994L1865.01 81.3708L1755.21 150.877L1645.73 81.3708V81.0505L1645.41 81.3708L1535.93 150.877L1426.13 81.3708L1316.65 150.877L1206.85 81.3708L1097.05 150.877L987.567 81.3708V81.0505L987.246 81.3708L877.766 150.877L767.965 81.3708L658.484 150.877V166.252L767.965 96.7455L877.766 166.252L987.567 96.7455L1097.05 166.252L1206.85 96.7455L1316.65 166.252L1426.13 96.7455L1535.93 166.252L1645.73 96.7455L1755.21 166.252L1865.01 96.7455L1970 163.369V147.994Z" fill="white"/>
  </g>
  <g opacity="0.05">
    <path fill-rule="evenodd" clip-rule="evenodd" d="M329.404 24.9971V9.62244L219.603 79.1286L109.801 9.62244L0 79.1286V94.8236L109.801 24.9971L219.603 94.8236L329.404 24.9971Z" fill="white"/>
  </g>
  <g opacity="0.05">
    <path fill-rule="evenodd" clip-rule="evenodd" d="M1969.4 183.928L1864.45 116.945L1754.69 186.812L1645.24 116.945H1644.92L1535.48 186.812L1425.71 116.945L1316.27 186.812L1206.51 116.945L1096.74 186.812L987.297 116.945H986.977L877.533 186.812L767.768 116.945L658.324 186.812L548.559 116.945L438.794 186.812L274.468 82.012V81.0505L164.703 150.917V166.301L274.468 97.3955L438.794 202.196L548.559 132.329L658.324 202.196L767.768 132.329L877.533 202.196L987.297 132.329L1096.74 202.196L1206.51 132.329L1316.27 202.196L1425.71 132.329L1535.48 202.196L1645.24 132.329L1754.69 202.196L1864.45 132.329L1969.4 199.312V183.928Z" fill="white"/>
  </g>
  <g opacity="0.05">
    <path fill-rule="evenodd" clip-rule="evenodd" d="M1970 112.12L1865.01 45.4966L1755.21 115.003L1645.73 45.4966H1645.41L1535.93 115.003L1426.13 45.4966L1316.65 115.003L1206.85 45.4966L1097.05 115.003L987.567 45.4966H987.246L877.766 115.003L767.965 45.4966L658.484 115.003V130.377L767.965 60.8712L877.766 130.377L987.567 60.8712L1097.05 130.377L1206.85 60.8712L1316.65 130.377L1426.13 60.8712L1535.93 130.377L1645.73 60.8712L1755.21 130.377L1865.01 60.8712L1970 127.495V112.12Z" fill="white"/>
  </g>
  <g opacity="0.05">
    <path fill-rule="evenodd" clip-rule="evenodd" d="M1968.4 40.3717L1863.52 -26.2517L1753.83 43.2545L1644.45 -26.2517H1644.13L1534.76 43.2545L1425.06 -26.2517L1315.69 43.2545L1206 -26.2517L1096.3 43.2545L986.929 -26.2517H986.608L877.235 43.2545L767.54 -26.2517L658.167 43.2545L548.472 -26.2517L438.778 43.2545L329.404 -26.2517V-10.8771L438.778 58.9494L548.472 -10.8771L658.167 58.9494L767.54 -10.8771L877.235 58.9494L986.929 -10.8771L1096.3 58.9494L1206 -10.8771L1315.69 58.9494L1425.06 -10.8771L1534.76 58.9494L1644.45 -10.8771L1753.83 58.9494L1863.52 -10.8771L1968.4 56.0667V40.3717Z" fill="white"/>
  </g>
  <g opacity="0.05">
    <path fill-rule="evenodd" clip-rule="evenodd" d="M1968.41 4.49765L1863.52 -62.1258L1753.81 7.38039L1644.43 -62.1258H1644.11L1534.73 7.38039L1425.03 -62.1258L1315.65 7.38039L1205.95 -62.1258L1096.25 7.38039L986.87 -62.1258H986.549L877.168 7.38039V8.66161L767.467 -60.8446L658.087 8.66161V7.38039L548.386 -62.1258L438.685 7.38039V8.66161L329.305 -60.8446H328.984L219.604 8.66161V24.3566L329.305 -45.4699L438.685 24.3566V23.0753L548.386 -46.7512L658.087 23.0753V24.3566L767.467 -45.4699L877.168 24.3566V23.0753L986.87 -46.7512L1096.25 23.0753L1205.95 -46.7512L1315.65 23.0753L1425.03 -46.7512L1534.73 23.0753L1644.43 -46.7512L1753.81 23.0753L1863.52 -46.7512L1968.41 20.1926V4.49765Z" fill="white"/>
  </g>
</svg>
